<svg width="20" height="18" viewBox="0 0 20 18" fill="none" xmlns="http://www.w3.org/2000/svg">
<path d="M10 16.9156C9.71527 16.9156 9.44077 16.8261 9.22684 16.6637C8.41888 16.0511 7.63992 15.4754 6.95267 14.9676L6.94916 14.9649C4.93423 13.476 3.19427 12.1902 1.98364 10.9236C0.630341 9.50765 0 8.1651 0 6.69844C0 5.27345 0.563507 3.95882 1.58661 2.99652C2.62192 2.02285 4.04251 1.4866 5.58716 1.4866C6.74164 1.4866 7.79892 1.80308 8.72955 2.42719C9.19922 2.74222 9.62494 3.12777 10 3.5775C10.3752 3.12777 10.8008 2.74222 11.2706 2.42719C12.2012 1.80308 13.2585 1.4866 14.413 1.4866C15.9575 1.4866 17.3782 2.02285 18.4135 2.99652C19.4366 3.95882 20 5.27345 20 6.69844C20 8.1651 19.3698 9.50765 18.0165 10.9235C16.8059 12.1902 15.0661 13.4759 13.0515 14.9647C12.363 15.4733 11.5828 16.0499 10.773 16.6639C10.5592 16.8261 10.2846 16.9156 10 16.9156ZM5.58716 2.50247C4.37363 2.50247 3.25882 2.92243 2.44781 3.68507C1.62476 4.45921 1.17142 5.52934 1.17142 6.69844C1.17142 7.93197 1.70013 9.03517 2.88559 10.2754C4.03137 11.4743 5.73563 12.7336 7.70889 14.1918L7.71255 14.1945C8.4024 14.7043 9.18442 15.2822 9.99832 15.8993C10.8171 15.281 11.6003 14.7022 12.2916 14.1916C14.2647 12.7334 15.9688 11.4743 17.1146 10.2754C18.2999 9.03517 18.8286 7.93197 18.8286 6.69844C18.8286 5.52934 18.3752 4.45921 17.5522 3.68507C16.7413 2.92243 15.6264 2.50247 14.413 2.50247C13.524 2.50247 12.7078 2.74751 11.9872 3.23071C11.3449 3.66151 10.8975 4.2061 10.6352 4.58716C10.5003 4.78311 10.2629 4.90007 10 4.90007C9.73709 4.90007 9.49966 4.78311 9.36478 4.58716C9.10263 4.2061 8.65524 3.66151 8.01285 3.23071C7.29218 2.74751 6.47598 2.50247 5.58716 2.50247Z" fill="#46A358"/>
</svg>
