<svg width="32" height="32" viewBox="0 0 32 32" fill="none" xmlns="http://www.w3.org/2000/svg">
<rect x="0.5" y="0.5" width="31" height="31" rx="4.5" stroke="#46A358" stroke-opacity="0.2"/>
<path fill-rule="evenodd" clip-rule="evenodd" d="M11.3244 13.3569C13.9176 13.1958 18.7483 13.1958 21.3415 13.3569L21.3422 13.3644C21.4047 13.9971 21.4299 14.8414 21.4299 16.0192C21.4299 17.1824 21.4053 18.0269 21.3441 18.665C18.6962 18.7703 13.9713 18.7703 11.3228 18.6651C11.261 18.0333 11.236 17.1914 11.236 16.0192C11.236 14.8414 11.2612 13.9971 11.3237 13.3644L11.3244 13.3569ZM7 16.0192C7 20.8412 7.38887 22.63 10.4221 22.8633C13.222 23.0189 19.4439 23.0189 22.2438 22.8633C25.277 22.7078 25.6659 20.8412 25.6659 16.0192C25.6659 11.1972 25.277 9.40834 22.2438 9.175C19.4439 8.94167 13.222 8.94167 10.4221 9.175C7.38887 9.40834 7 11.1972 7 16.0192ZM16.7823 17.7388C15.5039 18.3781 13.9997 17.4484 13.9997 16.0191C13.9997 14.5899 15.5039 13.6602 16.7823 14.2995C18.1994 15.008 18.1994 17.0303 16.7823 17.7388Z" fill="#46A358" fill-opacity="0.6"/>
</svg>
